<?xml version="1.0" encoding="UTF-8"?>
<svg width="1374" height="1029.9" version="1.1" viewBox="0 0 363.53 272.49" xmlns="http://www.w3.org/2000/svg">
 <g transform="translate(0 -.0019657)">
  <path d="m107.05 207.71v64.78h51.7v-116.48l-31.63 8.17z" fill="#00aab9"/>
  <path d="m0 155.7 51.7-155.7h55.07l-52.64 158.14-24.33 17.64z" fill="#00d7ff"/>
  <path d="m0 155.7 37.28 52.01h69.77l13.99-38.02-13.99-13.99z" fill="#0096ff"/>
  <path d="m107.05 207.71v-103.71h51.7v52.01z" fill="#0050aa"/>
 </g>
 <g transform="matrix(30.291 0 0 30.291 0 -7981.4)" fill="#0050aa">
  <path d="m5.8208 270.35v-3.4237h0.71074v1.3054h1.331v-1.3054h0.71074v3.4237h-0.71074v-1.5283h-1.331v1.5283z"/>
  <path d="m9.797 267.52v2.2345h0.66074c0.33813 0 0.57381-0.16642 0.70723-0.49937 0.07284-0.18267 0.10931-0.40025 0.10931-0.6527 0-0.34841-0.05461-0.6159-0.16401-0.8025-0.10931-0.18661-0.32681-0.27993-0.65253-0.27993zm1.3116-0.52033c0.24022 0.079 0.43473 0.22376 0.58353 0.43435 0.11938 0.17044 0.20065 0.35467 0.24402 0.5529 0.04346 0.19823 0.0652 0.38712 0.0652 0.56673 0 0.45521-0.09151 0.84087-0.27431 1.1567-0.24796 0.42588-0.6308 0.63879-1.1484 0.63879h-1.4762v-3.4238h1.4762c0.21236 3e-3 0.38898 0.0279 0.52996 0.0743"/>
 </g>
</svg>
