<?xml version="1.0" encoding="UTF-8"?>
<!-- Generator: Adobe Illustrator 16.0.0, SVG Export Plug-In . SVG Version: 6.00 Build 0)  -->
<!DOCTYPE svg  PUBLIC '-//W3C//DTD SVG 1.1//EN'  'http://www.w3.org/Graphics/SVG/1.1/DTD/svg11.dtd'>
<svg id="Layer_1" width="1e3px" height="349.42px" enable-background="new 0 0 1000 349.416" version="1.1" viewBox="0 0 1e3 349.42" xml:space="preserve" xmlns="http://www.w3.org/2000/svg">
	<path d="m670.9 0c49.508 0 84.643 27.021 84.643 77.119 0 47.988-32.615 77.196-84.643 77.196-50.896 0-84.685-28.018-84.685-77.196 1e-3 -48.535 33.481-77.119 84.685-77.119m0 122.43c26.454 0 42.039-18.162 42.039-45.313 0-28.479-16.451-45.307-42.039-45.307-26.965 0-42.164 18.211-42.164 45.307 0 25.993 14.752 45.313 42.164 45.313m-316.94-120.61h-83.252v11.604c0 10.136 5.406 20.097 19.742 20.097 6.361 0 53.157 0.021 53.157 0.021 22.157 0 30.136 7.188 30.136 24.952v2.55h-56.29c-41.694 0-57.085 19.3-57.085 45.6 0 31.848 21.314 45.846 57.225 45.846h37.408c48.975 0 59.432-24.492 59.432-56.842v-37.412c-1e-3 -34.851-12.909-56.416-60.473-56.416m19.783 94.205c0 15.202-7.09 26.84-27.377 26.84h-21.166c-14.759 0-23.596-3.962-23.596-16.102 0-11.626 8.131-16.097 23.596-16.097h48.543v5.359zm157.9-62.664h20.639c14.783 0 23.642-5.232 23.642-18.84v-12.7h-58.931c-49.295 0-72.906 29.018-72.906 75.296 0 57.833 35.988 75.373 72.906 75.373h58.931v-12.89c0-13.348-9.25-18.69-22.606-18.69h-21.674c-23.527 0-45.24-8.411-45.24-43.792-1e-3 -30.688 16.451-43.757 45.239-43.757m-444.78 77.941s-35.096-91.445-37.023-96.726c-2.727-7.173-6.4-12.755-19.645-12.755h-30.204l62.064 150.67h45.21l64.086-150.67h-26.545c-11.436 0-15.823 4.891-18.658 12.086l-38.664 97.396h-0.621zm805.67-1.373s-25.693-73.37-30.418-87.194c-3.231-9.311-7.563-20.915-28.469-20.915h-47.943v150.67h16.216c12.277 0 20.031-5.479 20.031-18.076v-105.36h0.712l46.447 123.44h43.524l46.469-123.44h0.676v105.44c0 10.688 5.759 18.002 20.106 18.002h20.103v-150.67h-44.921c-15.845 0-25.673 4.367-30.507 18.525-3.106 9.221-31.273 89.583-31.273 89.583h-0.753zm-702.45-108.11v132.96c0 10.314 6.137 17.706 19.484 17.706h21.188v-150.67h-40.672z" fill="#24B5E9"/>
	<rect x="21.747" y="190.25" width="8.43" height="61.7" fill="#909194"/>
	<path d="m118.14 252.4c-1.114 0-2.323-0.278-3.144-1.386l-35.756-46.319v47.251h-8.167v-58.183c0-2.316 1.958-4.17 4.179-4.17 1.297 0 2.405 0.374 3.24 1.488l35.66 46.217v-47.067h8.154v58.086c1e-3 2.411-1.945 4.083-4.166 4.083" fill="#909194"/>
	<polyline points="181.96 197.65 181.96 251.94 173.52 251.94 173.52 197.65 152.77 197.65 152.77 190.25 202.7 190.25 202.7 197.65" fill="#909194"/>
	<path d="m237.42 251.94c-2.316 0-4.258-1.942-4.258-4.18v-53.349c0-2.222 1.941-4.164 4.258-4.164h38.166v7.404h-33.994v18.806h27.69c2.044 0 3.709 1.67 3.709 3.701 0 2.046-1.665 3.622-3.709 3.622h-27.69v20.747h34.274v7.412" fill="#909194"/>
	<path d="m357.08 251.94-15.197-25.014h-19.92v25.014h-8.43v-57.528c0-2.222 1.95-4.164 4.26-4.164h26.121c11.854 0 19.744 8.328 19.744 18.336 0 7.969-4.729 14.823-12.779 17.229l16.011 26.128m-23.431-54.376h-21.496v22.037h21.496c6.298 0 11.768-3.974 11.768-11.019 0-7.037-5.47-11.018-11.768-11.018" fill="#909194"/>
	<path d="m448.11 252.4c-1.116 0-2.318-0.278-3.146-1.386l-35.753-46.319v47.251h-8.168v-58.183c0-2.316 1.957-4.17 4.171-4.17 1.312 0 2.42 0.374 3.255 1.488l35.66 46.217v-47.067h8.152v58.086c0 2.411-1.949 4.083-4.171 4.083" fill="#909194"/>
	<path d="m532.68 251.93-6.395-15.836h-27.141l-6.393 15.836h-8.525l24.927-59.925c0.645-1.578 2.032-2.42 3.608-2.42 1.575 0 2.881 0.842 3.51 2.42l24.928 59.925m-28.437-50.11-11.027 27.698h22.062l-11.035-27.698z" fill="#909194"/>
	<polyline points="588.25 197.65 588.25 251.94 579.82 251.94 579.82 197.65 559.06 197.65 559.06 190.25 608.99 190.25 608.99 197.65" fill="#909194"/>
	<rect x="641.69" y="190.25" width="8.431" height="61.7" fill="#909194"/>
	<path d="m717.41 252.96c-18.167 0-31.135-13.893-31.135-31.875 0-17.866 12.968-31.768 31.135-31.768 18.241 0 31.12 13.901 31.12 31.768 0 17.982-12.879 31.875-31.12 31.875m0-56.135c-13.429 0-22.705 10.19-22.705 24.26 0 14.172 9.276 24.369 22.705 24.369 13.427 0 22.689-10.197 22.689-24.369 1e-3 -14.069-9.262-24.26-22.689-24.26" fill="#909194"/>
	<path d="m830.35 252.4c-1.114 0-2.322-0.278-3.146-1.386l-35.767-46.319v47.251h-8.152v-58.183c0-2.316 1.942-4.17 4.178-4.17 1.289 0 2.396 0.374 3.231 1.488l35.671 46.217v-47.067h8.152v58.086c0 2.411-1.948 4.083-4.167 4.083" fill="#909194"/>
	<path d="m914.24 251.93-6.391-15.836h-27.142l-6.394 15.836h-8.517l24.926-59.925c0.645-1.578 2.032-2.42 3.599-2.42 1.574 0 2.88 0.842 3.517 2.42l24.921 59.925m-28.437-50.11-11.019 27.698h22.044l-11.025-27.698z" fill="#909194"/>
	<path d="m959.97 251.94c-2.318 0-4.176-1.942-4.176-4.18v-57.513h8.431v54.192h33.527v7.5" fill="#909194"/>
	<path d="m71.672 348.4v-45.851l-17.698 28.537c-0.557 0.828-1.566 1.75-3.24 1.75-1.67 0-2.683-1.012-3.24-1.856l-17.704-28.431v45.851h-8.052v-58.268c0-2.225 1.577-4.068 3.981-4.068 1.488 0 2.691 0.73 3.432 1.942l21.582 34.273 21.585-34.273c0.739-1.212 1.935-1.942 3.519-1.942 2.221 0 3.893 1.75 3.893 3.979v58.357" fill="#909194"/>
	<path d="m198.13 348.4h-9.903c-2.324 0-4.267-1.951-4.267-4.171v-53.367c0-2.22 1.942-4.162 4.267-4.162h9.903c22.516 0 37.89 12.316 37.89 30.851 0 18.526-15.374 30.849-37.89 30.849m1.394-54.199h-7.134v46.69h7.134c14.824 0 28.07-7.871 28.07-23.341 1e-3 -15.47-13.245-23.349-28.07-23.349" fill="#909194"/>
	<rect x="259.52" y="286.7" width="8.437" height="61.691" fill="#909194"/>
	<path d="m338.41 348.4-6.398-15.841h-27.14l-6.386 15.841h-8.533l24.925-59.924c0.646-1.584 2.038-2.421 3.615-2.421 1.575 0 2.866 0.837 3.511 2.421l24.928 59.924m-28.439-50.115-11.026 27.695h22.045l-11.019-27.695z" fill="#909194"/>
	<path d="m448.11 348.86c-1.116 0-2.318-0.277-3.146-1.392l-35.761-46.312v47.233h-8.16v-58.174c0-2.318 1.957-4.162 4.171-4.162 1.312 0 2.42 0.367 3.255 1.481l35.66 46.222v-47.059h8.152v58.084c0 2.406-1.949 4.079-4.171 4.079" fill="#909194"/>
	<path d="m489.67 348.4c-2.311 0-4.267-1.95-4.267-4.162v-53.367c0-2.22 1.956-4.162 4.267-4.162h38.157v7.411h-33.993v18.804h27.697c2.039 0 3.7 1.665 3.7 3.705 0 2.037-1.661 3.612-3.7 3.612h-27.697v20.75h34.274v7.409" fill="#909194"/>
	<polyline points="578.43 294.12 578.43 348.4 570 348.4 570 294.12 549.25 294.12 549.25 286.7 599.19 286.7 599.19 294.12" fill="#909194"/>
	<path d="m676.92 345.9c-0.563 1.856-2.044 2.971-3.896 2.971-1.841 0-3.24-1.024-3.697-2.506l-14.275-45.014-14.176 45.014c-0.466 1.481-1.841 2.506-3.697 2.506-1.951 0-3.436-1.204-3.886-2.971l-16.502-59.19h8.248l12.601 45.569 13.887-43.533c0.462-1.481 1.861-2.506 3.525-2.506 1.759 0 3.154 1.024 3.615 2.506l13.892 43.533 12.605-45.569h8.246" fill="#909194"/>
	<path d="m745.75 349.42c-18.155 0-31.133-13.895-31.133-31.878 0-17.864 12.978-31.765 31.133-31.765 18.253 0 31.127 13.9 31.127 31.765 0 17.983-12.874 31.878-31.127 31.878m0-56.138c-13.435 0-22.693 10.185-22.693 24.26 0 14.192 9.259 24.37 22.693 24.37 13.429 0 22.705-10.178 22.705-24.37 0-14.075-9.276-24.26-22.705-24.26" fill="#909194"/>
	<path d="m846.26 348.4-15.185-25.015h-19.918v25.015h-8.426v-57.529c0-2.211 1.942-4.162 4.261-4.162h26.111c11.863 0 19.738 8.337 19.738 18.343 0 7.962-4.729 14.824-12.776 17.236l16.017 26.112m-23.432-54.375h-21.493v22.052h21.493c6.301 0 11.762-3.987 11.762-11.026 0-7.047-5.461-11.026-11.762-11.026" fill="#909194"/>
	<polyline points="922.98 348.4 891.85 320.42 891.85 348.4 883.42 348.4 883.42 286.7 891.85 286.7 891.85 313.02 921.12 286.7 932.33 286.7 899.08 316.62 934.19 348.4" fill="#909194"/>
	<path d="m975.92 349.42c-8.154 0-16.667-1.656-24.64-4.628l1.942-6.679c7.315 2.317 15.286 3.989 22.697 3.989 10.287 0 15.653-3.614 15.653-8.711 0-4.632-4.167-6.941-18.526-13.621-14.364-6.664-20.008-10.921-20.008-19.265 0-10.455 8.152-14.725 23.532-14.725 6.391 0 16.21 1.294 21.854 2.955l-1.291 6.855c-6.214-1.473-13.992-2.493-20.378-2.493-10.843 0-15.287 2.041-15.287 7.13 0 4.997 3.24 7.14 18.437 14.082 16.022 7.323 20.098 11.025 20.098 18.628 0 11.019-10.564 16.483-24.083 16.483" fill="#909194"/>
	<path d="m117.1 348.4c-2.316 0-4.261-1.95-4.261-4.162v-53.367c0-2.22 1.944-4.162 4.261-4.162h38.166v7.411h-33.996v18.804h27.697c2.047 0 3.703 1.665 3.703 3.705 0 2.037-1.656 3.612-3.703 3.612h-27.697v20.75h34.282v7.409" fill="#909194"/>
</svg>
